<svg width="210" height="27" viewBox="0 0 210 27" fill="none" xmlns="http://www.w3.org/2000/svg">
<path d="M6.388 5.66V10.772H14.632V15.524H6.388V21.068H15.712V26H0.232V0.727999H15.712V5.66H6.388ZM35.4406 21.536H26.0086L24.4966 26H18.0526L27.1966 0.727999H34.3246L43.4686 26H36.9526L35.4406 21.536ZM33.8566 16.784L30.7246 7.532L27.6286 16.784H33.8566ZM52.8035 20.96H63.6755V26H45.8195V21.32L56.6195 5.768H45.8195V0.727999H63.6755V5.408L52.8035 20.96ZM89.3688 0.727999L80.6208 17.648V26H74.4648V17.648L65.7168 0.727999H72.7008L77.5968 11.312L82.4568 0.727999H89.3688Z" fill="black"/>
<path d="M98.4341 13.328C98.4341 10.832 98.9741 8.612 100.054 6.668C101.134 4.7 102.634 3.176 104.554 2.096C106.498 0.991999 108.694 0.439999 111.142 0.439999C114.142 0.439999 116.71 1.232 118.846 2.816C120.982 4.4 122.41 6.56 123.13 9.296H116.362C115.858 8.24 115.138 7.436 114.202 6.884C113.29 6.332 112.246 6.056 111.07 6.056C109.174 6.056 107.638 6.716 106.462 8.036C105.286 9.356 104.698 11.12 104.698 13.328C104.698 15.536 105.286 17.3 106.462 18.62C107.638 19.94 109.174 20.6 111.07 20.6C112.246 20.6 113.29 20.324 114.202 19.772C115.138 19.22 115.858 18.416 116.362 17.36H123.13C122.41 20.096 120.982 22.256 118.846 23.84C116.71 25.4 114.142 26.18 111.142 26.18C108.694 26.18 106.498 25.64 104.554 24.56C102.634 23.456 101.134 21.932 100.054 19.988C98.9741 18.044 98.4341 15.824 98.4341 13.328ZM148.788 0.727999V26H142.632V15.596H133.056V26H126.9V0.727999H133.056V10.628H142.632V0.727999H148.788ZM159.388 5.66V10.772H167.632V15.524H159.388V21.068H168.712V26H153.232V0.727999H168.712V5.66H159.388ZM178.865 5.66V10.772H187.109V15.524H178.865V21.068H188.189V26H172.709V0.727999H188.189V5.66H178.865ZM198.737 20.96H209.609V26H191.753V21.32L202.553 5.768H191.753V0.727999H209.609V5.408L198.737 20.96Z" fill="#FFB83B"/>
</svg>
